<?xml version="1.0" encoding="UTF-8" standalone="no"?>
<!-- Generator: Adobe Illustrator 27.1.1, SVG Export Plug-In . SVG Version: 6.00 Build 0)  -->

<svg
   version="1.1"
   id="Layer_1"
   x="0px"
   y="0px"
   viewBox="0 0 277.43923 52.1"
   xml:space="preserve"
   sodipodi:docname="frp-logo-2023.svg"
   width="277.43924"
   height="52.099998"
   inkscape:version="1.1.2 (b8e25be833, 2022-02-05)"
   xmlns:inkscape="http://www.inkscape.org/namespaces/inkscape"
   xmlns:sodipodi="http://sodipodi.sourceforge.net/DTD/sodipodi-0.dtd"
   xmlns="http://www.w3.org/2000/svg"
   xmlns:svg="http://www.w3.org/2000/svg"><defs
   id="defs59" /><sodipodi:namedview
   id="namedview57"
   pagecolor="#505050"
   bordercolor="#eeeeee"
   borderopacity="1"
   inkscape:pageshadow="0"
   inkscape:pageopacity="0"
   inkscape:pagecheckerboard="0"
   showgrid="false"
   fit-margin-top="0"
   fit-margin-left="0"
   fit-margin-right="0"
   fit-margin-bottom="0"
   inkscape:zoom="1.9509668"
   inkscape:cx="147.10655"
   inkscape:cy="-14.351859"
   inkscape:window-width="1920"
   inkscape:window-height="1017"
   inkscape:window-x="-8"
   inkscape:window-y="-8"
   inkscape:window-maximized="1"
   inkscape:current-layer="Layer_1" />
<style
   type="text/css"
   id="style2">
	.st0{fill:#3A9144;}
	.st1{fill:#D40F14;}
	.st2{fill:#FFFFFF;}
	.st3{fill:#623C2C;}
</style>
<g
   id="g14"
   transform="translate(-5.4607695,-3.5)">
	<path
   class="st0"
   d="m 39.4,11.5 c 0.6,0.5 1.1,1 1.7,1.5 1.2,1 2.5,1.8 3.9,2.5 1.2,0.5 2.4,0.9 3.7,1.1 0.2,0 0.5,0.1 0.7,0.1 0.4,0 0.8,0.1 1.2,0.1 0.4,0 0.8,0 1.1,0 0.3,0 0.6,-0.1 0.9,-0.1 2.6,-0.4 5.2,-1.7 6.9,-3.7 -0.1,0 -0.2,0 -0.3,0 -0.5,-0.1 -1,-0.2 -1.5,-0.4 C 57.2,12.4 56.8,12.2 56.4,11.9 55.6,11.4 55,10.8 54.3,10.1 54,9.7 53.6,9.4 53.3,9 53.2,8.9 53.2,8.9 53.1,8.8 52.7,8.3 52.2,7.8 51.7,7.3 50.3,5.9 48.6,4.7 46.6,4.1 46.3,4 46,3.9 45.7,3.9 45.3,3.8 45,3.8 44.6,3.8 c -0.4,0 -0.8,0 -1.2,0 -0.2,0 -0.5,0 -0.7,0.1 -1.2,0.2 -2.4,0.6 -3.5,1.2 -2,1.1 -3.8,2.6 -5.4,4.2 0,0 0,0 0.1,0 0.1,0 0.2,0 0.2,0 0,0 0,0 0.3,0 1.2,0.1 2.1,0.5 2.9,0.9 0.8,0.4 1.4,0.9 1.8,1.2 0.2,0 0.2,0 0.3,0.1"
   id="path4" />
	<path
   class="st1"
   d="m 52.6,17.6 c -0.2,0 -0.5,0.1 -0.7,0.1 -0.4,0 -0.8,0 -1.1,0 h -0.1 c -0.4,0 -0.9,0 -1.3,-0.1 -0.3,0 -0.5,-0.1 -0.8,-0.1 -1.3,-0.2 -2.6,-0.6 -3.9,-1.2 -1.5,-0.7 -2.9,-1.5 -4.2,-2.6 -0.4,-0.3 -0.8,-0.7 -1.1,-1 -0.2,-0.2 -0.4,-0.4 -0.6,-0.5 -0.1,0 -0.1,-0.1 -0.2,-0.2 -0.5,-0.4 -1,-0.8 -1.6,-1.1 -0.3,-0.1 -0.5,-0.3 -0.8,-0.4 -0.5,-0.1 -1.1,-0.1 -1.6,-0.2 -1,-0.1 -2,-0.3 -2.9,-0.6 -1,-0.4 -1.9,-1 -2.9,-1.5 -2.2,-1.3 -4.7,-1.9 -7.3,-1.6 -0.9,0.1 -1.9,0.3 -2.9,0.6 -1.2,0.3 -2.2,0.9 -3.2,1.6 -0.9,0.6 -1.7,1.3 -2.5,2 -0.4,0.4 -0.8,0.8 -1.1,1.2 -0.2,0.2 -0.4,0.5 -0.6,0.7 -0.4,0.5 -0.8,1.1 -1.2,1.6 -0.9,1.4 -1.7,2.9 -2.4,4.5 -0.9,2.3 -1.6,4.8 -1.9,7.2 -0.2,1.9 -0.3,3.8 -0.2,5.7 0.1,0.9 0.2,1.8 0.3,2.6 0.3,1.9 0.9,3.9 1.6,5.7 1,2.4 2.3,4.6 3.8,6.6 0.5,0.7 1.1,1.3 1.6,1.9 0.4,0.4 0.7,0.8 1.1,1.1 0.7,0.7 1.5,1.4 2.3,2 1.6,1.2 3.4,2.3 5.4,2.8 0.7,0.1 1.3,0.2 2,0.2 1.7,-0.1 3.5,-0.3 5.2,0 1.9,0.3 3.8,1 5.8,1 1.6,0 3.2,-0.4 4.7,-1 0.7,-0.3 1.4,-0.6 2.1,-1 1.7,-1 3.2,-2.3 4.6,-3.6 0.4,-0.4 0.9,-0.9 1.3,-1.4 0.5,-0.6 1,-1.2 1.5,-1.9 1.4,-1.9 2.7,-4 3.7,-6.2 0.8,-1.7 1.4,-3.5 1.8,-5.3 0.2,-0.8 0.4,-1.6 0.5,-2.5 0.3,-1.8 0.5,-3.6 0.5,-5.4 0,-2.3 -0.3,-4.7 -1.1,-6.9 -0.4,-0.8 -0.9,-1.8 -1.6,-2.8"
   id="path6" />
	<path
   class="st2"
   d="m 40.6,31.2 h -8.4 -1.8 c -1,5 -2.1,10 -3.1,15 h 4.4 c 0.6,-2.7 1.2,-5.5 1.8,-8.2 h 5.6 z"
   id="path8" />
	<path
   class="st2"
   d="m 43,20.1 c -1.3,0 -14.1,0 -14.4,0 -1.4,0 -2.7,0.6 -3.6,1.8 -0.1,0.2 -0.3,0.4 -0.4,0.6 -0.2,0.5 -0.4,1 -0.5,1.6 0,0.3 -4.2,22 -4.2,22 1.5,0 3.8,0 5.2,0 0,0 3.1,-15.8 3.2,-16.2 0.2,-0.7 0.3,-1.1 0.9,-1.1 h 12 z"
   id="path10" />
	<path
   class="st3"
   d="M 33.7,9.2 C 34.5,6.5 36.1,4.6 36.1,4.6 L 33.8,3.5 c -1,1.9 -1.6,3.9 -2,5.2 0.8,0.4 1.6,0.5 1.9,0.5"
   id="path12" />
</g>
<polygon
   class="st2"
   points="81.5,26 73,26 73,30.3 80.9,30.3 80.9,32.9 73,32.9 73,38.7 70.1,38.7 70.1,23.4 81.5,23.4 "
   id="polygon16"
   style="fill:#004f80;fill-opacity:1"
   transform="translate(-5.4607695,-3.5)" />
<g
   id="g26"
   style="fill:#004f80;fill-opacity:1"
   transform="translate(-5.4607695,-3.5)">
	<path
   class="st2"
   d="m 85.9,28.7 c 0.6,-1.2 1.9,-2.1 3.6,-2.1 2.1,0 3.9,1.1 3.9,4.4 v 1.5 h -2.8 v -1.3 c 0,-1.5 -0.6,-2.2 -2,-2.2 -2,0 -2.7,1.4 -2.7,2.6 v 7.2 h -2.8 v -12 h 2.8 z"
   id="path18"
   style="fill:#004f80;fill-opacity:1" />
	<path
   class="st2"
   d="m 103.5,31.4 v -0.3 c -0.3,-1.3 -1.3,-2.2 -3,-2.2 -1.9,0 -2.8,1 -3,2.5 z m -8.9,0.9 c 0,-3.4 1.9,-5.7 6,-5.7 3.7,0 5.8,2.1 5.8,5.8 v 1 h -8.9 c 0,1.8 0.9,3.1 3.2,3.1 1.7,0 2.4,-0.8 2.6,-1.6 v -0.3 h 3 v 0.1 c -0.3,2.3 -2.1,4.1 -5.6,4.1 -4.1,0 -6.1,-2.3 -6.1,-5.8 z"
   id="path20"
   style="fill:#004f80;fill-opacity:1" />
	<path
   class="st2"
   d="m 121.2,29 c -2.2,0 -2.5,1.8 -2.5,2.7 v 7 H 116 v -7.1 c 0,-1.4 -0.5,-2.7 -2.3,-2.7 -2.1,0 -2.5,1.8 -2.5,2.7 v 7.1 h -2.8 v -12 h 2.8 v 1.4 c 0.8,-1.1 1.8,-1.6 3.3,-1.6 1.9,0 3.1,0.8 3.7,2 0.7,-1.2 2,-2 3.8,-2 2.8,0 4.3,1.9 4.3,4.5 v 7.6 h -2.8 v -7.1 c 0,-1.3 -0.5,-2.5 -2.3,-2.5"
   id="path22"
   style="fill:#004f80;fill-opacity:1" />
	<path
   class="st2"
   d="m 139.6,35.1 c 0,2.2 -1.1,3.8 -5.6,3.8 -4.5,0 -5.9,-1.6 -5.9,-4.3 v -0.3 h 2.9 v 0.3 c 0,1.5 1,2 3,2 2.2,0 2.8,-0.5 2.8,-1.3 0,-0.8 -0.6,-1.1 -1.8,-1.4 l -2.8,-0.5 c -2.9,-0.5 -3.7,-1.7 -3.7,-3.3 0,-1.9 1.2,-3.5 5.2,-3.5 4.3,0 5.5,1.7 5.5,3.9 v 0.3 h -2.9 v -0.3 c 0,-1.3 -0.9,-1.6 -2.7,-1.6 -1.3,0 -2.4,0.2 -2.4,1.1 0,0.6 0.5,0.9 1.7,1.2 l 3.3,0.7 c 2.7,0.5 3.4,1.7 3.4,3.2"
   id="path24"
   style="fill:#004f80;fill-opacity:1" />
</g>
<polygon
   class="st2"
   points="145.5,31.5 149.8,26.8 153.3,26.8 147.6,32.8 153.3,38.7 149.8,38.7 145.4,33.9 144.3,33.9 144.3,38.7 141.6,38.7 141.6,23.4 144.3,23.4 144.3,31.5 "
   id="polygon28"
   style="fill:#004f80;fill-opacity:1"
   transform="translate(-5.4607695,-3.5)" />
<g
   id="g54"
   style="fill:#004f80;fill-opacity:1"
   transform="translate(-5.4607695,-3.5)">
	<path
   class="st2"
   d="m 157.3,28.7 c 0.6,-1.2 1.9,-2.1 3.6,-2.1 2.1,0 3.9,1.1 3.9,4.4 v 1.5 H 162 v -1.3 c 0,-1.5 -0.6,-2.2 -2,-2.2 -2,0 -2.7,1.4 -2.7,2.6 v 7.2 h -2.8 v -12 h 2.8 z"
   id="path30"
   style="fill:#004f80;fill-opacity:1" />
	<path
   class="st2"
   d="m 169.3,38.7 h -2.8 v -12 h 2.8 z M 168,23.2 c 1.1,0 1.7,0.5 1.7,1.3 0,0.7 -0.5,1.3 -1.7,1.3 -1.1,0 -1.7,-0.6 -1.7,-1.3 0,-0.7 0.5,-1.3 1.7,-1.3"
   id="path32"
   style="fill:#004f80;fill-opacity:1" />
	<path
   class="st2"
   d="m 180.5,29.2 h -3.9 v 5.4 c 0,1.3 0.3,1.7 1.2,1.7 h 2.7 v 2.4 h -3.3 c -2.6,0 -3.3,-1.3 -3.3,-3.6 v -6 h -3.1 v -2.4 h 1.5 c 1.5,-0.1 1.9,-1.1 1.9,-3.3 h 2.7 c 0,1.7 -0.3,3.1 -1.2,3.3 h 4.7 v 2.5 z"
   id="path34"
   style="fill:#004f80;fill-opacity:1" />
	<path
   class="st2"
   d="m 191.3,29.2 h -3.9 v 5.4 c 0,1.3 0.3,1.7 1.2,1.7 h 2.7 v 2.4 H 188 c -2.6,0 -3.3,-1.3 -3.3,-3.6 v -6 h -3.1 v -2.4 h 1.5 c 1.5,-0.1 1.9,-1.1 1.9,-3.3 h 2.7 c 0,1.7 -0.3,3.1 -1.2,3.3 h 4.7 v 2.5 z"
   id="path36"
   style="fill:#004f80;fill-opacity:1" />
	<path
   class="st2"
   d="m 204,35.1 c 0,2.2 -1.1,3.8 -5.6,3.8 -4.5,0 -5.9,-1.6 -5.9,-4.3 v -0.3 h 2.9 v 0.3 c 0,1.5 1,2 3,2 2.2,0 2.8,-0.5 2.8,-1.3 0,-0.8 -0.6,-1.1 -1.8,-1.4 l -2.8,-0.5 c -2.9,-0.5 -3.7,-1.7 -3.7,-3.3 0,-1.9 1.2,-3.5 5.2,-3.5 4.3,0 5.5,1.7 5.5,3.9 v 0.3 h -2.9 v -0.3 c 0,-1.3 -0.9,-1.6 -2.7,-1.6 -1.3,0 -2.4,0.2 -2.4,1.1 0,0.6 0.5,0.9 1.7,1.2 l 3.3,0.7 c 2.8,0.5 3.4,1.7 3.4,3.2"
   id="path38"
   style="fill:#004f80;fill-opacity:1" />
	<path
   class="st2"
   d="m 211.9,36.5 c 2.2,0 3.1,-1.5 3.1,-3.2 v -1.1 c 0,-1.7 -0.9,-3.2 -3.1,-3.2 -2.2,0 -3.1,1.5 -3.1,3.2 v 1.1 c 0,1.7 0.9,3.2 3.1,3.2 m -3.1,-8.2 c 0.6,-0.8 1.7,-1.7 3.7,-1.7 3.3,0 5.3,2.3 5.3,5.5 v 1.3 c 0,3.1 -2,5.5 -5.3,5.5 -1.9,0 -3.1,-0.8 -3.8,-1.6 V 43 H 206 V 26.8 h 2.8 z"
   id="path40"
   style="fill:#004f80;fill-opacity:1" />
	<path
   class="st2"
   d="m 224,36.7 c 2,0 3.6,-1.1 3.8,-2.9 v -1.3 c -0.4,0.7 -1.3,0.9 -2.5,1.2 l -1.4,0.3 c -1.3,0.3 -1.8,0.6 -1.8,1.4 0,0.9 0.6,1.3 1.9,1.3 m 3.9,0.1 c -1,1.5 -2.8,2.1 -4.7,2.1 -2.4,0 -3.9,-1 -3.9,-3.2 0,-2.4 2.2,-3.2 4.1,-3.6 l 1.5,-0.3 c 1.8,-0.4 2.9,-0.6 2.9,-1.6 v -0.1 c 0,-0.7 -0.6,-1.3 -2.4,-1.3 -2,0 -2.9,0.7 -2.9,2 v 0.5 h -2.8 V 31 c 0,-2.9 1.9,-4.4 5.6,-4.4 3.9,0 5.2,1.7 5.2,4.1 v 8 h -2.7 z"
   id="path42"
   style="fill:#004f80;fill-opacity:1" />
	<path
   class="st2"
   d="m 235.8,28.7 c 0.6,-1.2 1.9,-2.1 3.6,-2.1 2.1,0 3.9,1.1 3.9,4.4 v 1.5 h -2.8 v -1.3 c 0,-1.5 -0.6,-2.2 -2,-2.2 -2,0 -2.7,1.4 -2.7,2.6 v 7.2 H 233 v -12 h 2.8 z"
   id="path44"
   style="fill:#004f80;fill-opacity:1" />
	<path
   class="st2"
   d="m 253.7,29.2 h -3.9 v 5.4 c 0,1.3 0.3,1.7 1.2,1.7 h 2.7 v 2.4 h -3.3 c -2.6,0 -3.3,-1.3 -3.3,-3.6 v -6 H 244 v -2.4 h 1.5 c 1.5,-0.1 1.9,-1.1 1.9,-3.3 h 2.7 c 0,1.7 -0.3,3.1 -1.2,3.3 h 4.7 v 2.5 z"
   id="path46"
   style="fill:#004f80;fill-opacity:1" />
	<path
   class="st2"
   d="m 258.5,38.7 h -2.8 v -12 h 2.8 z m -1.3,-15.5 c 1.1,0 1.7,0.5 1.7,1.3 0,0.7 -0.5,1.3 -1.7,1.3 -1.1,0 -1.7,-0.6 -1.7,-1.3 0,-0.7 0.5,-1.3 1.7,-1.3"
   id="path48"
   style="fill:#004f80;fill-opacity:1" />
	<path
   class="st2"
   d="m 269.5,31.4 v -0.3 c -0.3,-1.3 -1.3,-2.2 -3,-2.2 -1.9,0 -2.8,1 -3,2.5 z m -8.9,0.9 c 0,-3.4 1.9,-5.7 6,-5.7 3.7,0 5.8,2.1 5.8,5.8 v 1 h -8.9 c 0,1.8 0.9,3.1 3.2,3.1 1.7,0 2.4,-0.8 2.6,-1.6 v -0.3 h 3 v 0.1 c -0.3,2.3 -2.1,4.1 -5.6,4.1 -4.1,0 -6.1,-2.3 -6.1,-5.8 z"
   id="path50"
   style="fill:#004f80;fill-opacity:1" />
	<path
   class="st2"
   d="M 282.8,29.2 H 279 v 5.4 c 0,1.3 0.3,1.7 1.2,1.7 h 2.7 v 2.4 h -3.3 c -2.6,0 -3.3,-1.3 -3.3,-3.6 v -6 h -3.1 v -2.4 h 1.5 c 1.5,-0.1 1.9,-1.1 1.9,-3.3 h 2.7 c 0,1.7 -0.3,3.1 -1.2,3.3 h 4.7 z"
   id="path52"
   style="fill:#004f80;fill-opacity:1" />
</g>
</svg>
