<?xml version="1.0" encoding="utf-8"?>
<!-- Generator: Adobe Illustrator 24.3.0, SVG Export Plug-In . SVG Version: 6.00 Build 0)  -->
<svg version="1.1" id="Layer_1" xmlns="http://www.w3.org/2000/svg" xmlns:xlink="http://www.w3.org/1999/xlink" x="0px" y="0px"
	 viewBox="0 0 207.2 122.1" style="enable-background:new 0 0 207.2 122.1;" xml:space="preserve">
<style type="text/css">
	.st0{fill:#539760;}
	.st1{fill:#EB4040;}
	.st2{fill:none;stroke:#000000;stroke-miterlimit:10;}
	.st3{fill:url(#);}
	.st4{fill:#FFFFFF;}
	.st5{fill:none;}
	.st6{fill:#509760;}
	.st7{fill:#E84040;}
	.st8{fill:#4D9162;}
	.st9{fill:#F04E4C;}
	.st10{fill:#231F20;}
</style>
<g>
	<path class="st0" d="M23.5,85c0,7.8,6.5,13.9,17.1,13.9c10.2,0,16.9-5.9,16.9-13.9c0-7.3-4.9-10.7-17.7-13.5
		C18.4,66.8,1.5,57.5,1.6,35.6C1.6,15.7,18.1,0,40.7,0C60,0,75.1,11.2,79.3,26.8L56,32.9c-1.4-5.5-7-9.9-15.4-9.9
		c-9.6,0-14.9,5.1-14.9,11.8c0,6.4,6.3,10.5,15.2,12.2c23.7,4.8,41.3,14.6,41.3,38.1c0,22-17.4,37-41.7,37
		C19.5,122,3.2,108.9,0,91.3L23.5,85z"/>
	<polygon class="st1" points="110,118 207.2,3.3 174.9,3.3 120.1,68 120.1,3.3 93.2,3.3 93.2,118 	"/>
</g>
</svg>
